<svg width="20" height="20" viewBox="0 0 20 20" fill="none" xmlns="http://www.w3.org/2000/svg">
<path d="M17.7778 2.22223H2.22223C1.92754 2.22223 1.64493 2.33929 1.43655 2.54767C1.22818 2.75604 1.11111 3.03866 1.11111 3.33334V16.6667C1.11111 16.9614 1.22818 17.244 1.43655 17.4523C1.64493 17.6607 1.92754 17.7778 2.22223 17.7778H17.7778C18.0725 17.7778 18.3551 17.6607 18.5635 17.4523C18.7718 17.244 18.8889 16.9614 18.8889 16.6667V3.33334C18.8889 3.03866 18.7718 2.75604 18.5635 2.54767C18.3551 2.33929 18.0725 2.22223 17.7778 2.22223ZM2.22223 16.6667V3.33334H17.7778V16.6667H2.22223Z" fill="#6E6893"/>
<path d="M4.95555 7.77779C5.28518 7.77779 5.60741 7.68004 5.8815 7.49691C6.15558 7.31377 6.3692 7.05347 6.49535 6.74893C6.62149 6.44439 6.6545 6.10928 6.59019 5.78598C6.52588 5.46267 6.36715 5.1657 6.13406 4.93261C5.90097 4.69953 5.604 4.54079 5.2807 4.47648C4.9574 4.41217 4.62228 4.44518 4.31774 4.57133C4.0132 4.69747 3.7529 4.91109 3.56976 5.18518C3.38663 5.45926 3.28888 5.78149 3.28888 6.11113C3.28888 6.55315 3.46447 6.97708 3.77703 7.28964C4.0896 7.6022 4.51352 7.77779 4.95555 7.77779ZM4.95555 5.22224C5.13158 5.22114 5.30399 5.27233 5.45089 5.36933C5.5978 5.46633 5.71259 5.60477 5.78072 5.7671C5.84885 5.92942 5.86725 6.10832 5.83358 6.28111C5.79992 6.4539 5.7157 6.6128 5.59161 6.73767C5.46752 6.86254 5.30915 6.94776 5.13657 6.98251C4.96399 7.01726 4.78498 6.99998 4.62223 6.93287C4.45949 6.86576 4.32033 6.75183 4.22241 6.60554C4.12449 6.45924 4.07222 6.28717 4.07221 6.11113C4.07367 5.8773 4.1672 5.65347 4.33255 5.48812C4.49789 5.32278 4.72172 5.22925 4.95555 5.22779V5.22224Z" fill="#6E6893"/>
<path d="M12.6555 8.53887L9.65555 11.5389L7.43332 9.31665C7.32923 9.21318 7.18843 9.1551 7.04166 9.1551C6.89489 9.1551 6.75408 9.21318 6.64999 9.31665L3.28888 12.7222V14.2944L7.0611 10.5222L8.88888 12.3222L6.80555 14.4055H8.33332L13.0278 9.71109L16.6667 13.3333V11.7666L13.4389 8.53887C13.3348 8.4354 13.194 8.37732 13.0472 8.37732C12.9004 8.37732 12.7596 8.4354 12.6555 8.53887Z" fill="#6E6893"/>
</svg>
